<?xml version="1.0" encoding="UTF-8"?>
<svg id="Layer_1" xmlns="http://www.w3.org/2000/svg" version="1.1" viewBox="0 0 1024 1024">
  <!-- Generator: Adobe Illustrator 29.1.0, SVG Export Plug-In . SVG Version: 2.1.0 Build 142)  -->
  <defs>
    <style>
      .st0 {
        fill: #333f60;
        stroke-width: 22px;
      }

      .st0, .st1 {
        stroke: #fbf1e5;
        stroke-miterlimit: 10;
      }

      .st2 {
        fill: #321d30;
      }

      .st1 {
        fill: none;
        stroke-linecap: round;
        stroke-width: 7px;
      }

      .st3 {
        fill: #fbf1e5;
      }
    </style>
  </defs>
  <rect class="st2" x="0" y="0" width="1024" height="1024" rx="116.5" ry="116.5"/>
  <path class="st3" d="M172.5,77.7c-9.8,45.2,69.2,38.5,18.7,46.6-16.7,3-15.2,30-23.5,34.7,4.5-41.8-37.6-26-39.9-41.5,24.5-2,37.8-9.5,38.3-36,.7-2.7,1.6-4.6,6.4-3.9Z"/>
  <path class="st3" d="M73.5,319.5c-1.6-1-3-3.1-5.4-3.3l-15.3-3.9c4.8-3.8,11.3-2.9,17-5.3,14.9-6.3,12.4-18.7,14.9-32.2,4.8,2.9,2.6,11.4,3.5,16.4,2.2,12,15.9,17.5,26.7,18.7l-16.5,6.6c-11.4,7.1-12.6,19.3-12.2,31.7-.2-.2-2.8.7-3.2-1.1-3.2-12.1,5.7-18.4-9.5-27.7Z"/>
  <path class="st3" d="M628.9,919.5c-1.6-1-3-3.1-5.4-3.3l-15.3-3.9c4.8-3.8,11.3-2.9,17-5.3,14.8-6.3,12.4-18.7,14.9-32.2,4.8,2.9,2.6,11.4,3.5,16.3,2.2,12,15.8,17.5,26.7,18.7l-16.5,6.6c-11.3,7.1-12.6,19.2-12.2,31.6-.2-.2-2.8.7-3.2-1.1-3.2-12.1,5.7-18.4-9.5-27.6Z"/>
  <path class="st3" d="M920.9,238.2c5.2-28.7-19.3-35-39.9-41.5,28.7-3.7,40.9-18.5,42.3-46.3,5.5,8.9,1.3,20.8,7.2,29.5,9.7,16.2,53.6,17.1,14.8,22.8-27.6,10-12.6,29.8-24.3,35.5Z"/>
  <path class="st0" d="M883.4,475.1c0,197.4-160,357.4-357.4,357.4s-71.8-5.5-105-15.7c-20.4-6.2-104.5,125.8-123.2,116.2-14.4-7.4,36.4-155.9,23.2-165.1-92.2-64.6-152.5-171.7-152.5-292.9,0-197.4,160-357.4,357.4-357.4s357.4,160,357.4,357.4Z"/>
  <circle class="st3" cx="445.4" cy="479.3" r="47.8"/>
  <circle class="st3" cx="323.2" cy="316.1" r="23.4"/>
  <circle class="st3" cx="669.8" cy="480.8" r="35.4"/>
  <circle class="st3" cx="722.3" cy="650.1" r="28.9"/>
  <line class="st1" x1="676" y1="534.1" x2="696.7" y2="599.5"/>
  <line class="st1" x1="345.7" y1="360.1" x2="385.1" y2="429.1"/>
  <line class="st1" x1="517.9" y1="483.8" x2="610.9" y2="480.4"/>
  <circle class="st3" cx="835.3" cy="816.1" r="12.1"/>
  <circle class="st3" cx="984.6" cy="515.9" r="12.1"/>
  <circle class="st3" cx="144.1" cy="796.6" r="12.1"/>
  <circle class="st3" cx="92.1" cy="588.9" r="12.1"/>
  <circle class="st3" cx="772.1" cy="107" r="12.1"/>
</svg>